<svg width="15" height="15" viewBox="0 0 15 15" fill="none" xmlns="http://www.w3.org/2000/svg">
<g clip-path="url(#clip0_64_303)">
<g clip-path="url(#clip1_64_303)">
<path fill-rule="evenodd" clip-rule="evenodd" d="M2.30908 0.207044C1.21733 0.36929 0.37042 1.11952 0.0789746 2.18262L0.0147266 2.417V7.5V12.583L0.0789746 12.8174C0.343525 13.7824 1.07044 14.4964 2.03981 14.7433L2.29988 14.8096H7.50008H12.7003L12.9603 14.7433C13.2465 14.6704 13.6307 14.5014 13.8441 14.3546C14.2314 14.0882 14.6171 13.6149 14.7913 13.1926C14.8803 12.9768 14.9708 12.6509 14.9708 12.5462C14.9708 12.512 14.984 12.4758 15.0001 12.4658C15.0194 12.4539 15.0294 10.756 15.0294 7.46725C15.0294 4.15439 15.0196 2.49284 15.0001 2.50489C14.9839 2.51491 14.9708 2.49361 14.9708 2.45722C14.9708 2.34947 14.8815 2.02603 14.7913 1.80744C14.6171 1.38513 14.2314 0.911839 13.8441 0.645384C13.6387 0.504085 13.2529 0.33182 12.9755 0.257581L12.7296 0.191751L7.60262 0.187034C4.78279 0.184427 2.40069 0.193421 2.30908 0.207044ZM0.0144043 7.5C0.0144043 10.2473 0.017832 11.3712 0.0220508 9.99756C0.0262695 8.62389 0.0262695 6.37612 0.0220508 5.00244C0.017832 3.62877 0.0144043 4.75269 0.0144043 7.5ZM3.96336 4.21143C3.93594 4.425 3.7591 4.95885 2.90355 7.41091C2.33879 9.02965 1.87303 10.381 1.86854 10.4138C1.86061 10.4723 1.87514 10.4738 2.51753 10.4815C3.02366 10.4876 3.18005 10.4809 3.19818 10.4522C3.2191 10.4193 3.48468 9.61266 3.63729 9.11865L3.69383 8.93555H4.86453C5.50842 8.93555 6.03523 8.93994 6.03523 8.94528C6.03523 8.95799 6.46156 10.2019 6.52139 10.3638L6.56741 10.4883H7.28278C7.94445 10.4883 7.99815 10.4844 7.99833 10.437C7.99845 10.4088 7.48256 8.93886 6.85191 7.17041L5.70529 3.95508H4.85079H3.99629L3.96336 4.21143ZM4.83406 5.10472C4.83406 5.11398 4.66268 5.69136 4.4532 6.38783C4.24373 7.08431 4.07234 7.66562 4.07234 7.67962C4.07234 7.69363 4.42918 7.70508 4.86532 7.70508C5.6068 7.70508 5.65733 7.70174 5.64321 7.65381C5.53596 7.28992 4.8556 5.10941 4.84646 5.10027C4.83963 5.09347 4.83406 5.09546 4.83406 5.10472ZM10.2393 5.49326C9.85452 5.56597 9.58807 5.68181 9.28974 5.90608C8.90325 6.19658 8.57135 6.73325 8.41769 7.31611C8.35355 7.55936 8.34178 7.66881 8.33955 8.04199C8.338 8.29899 8.35253 8.55443 8.37447 8.65723C8.629 9.84859 9.39374 10.5197 10.5909 10.6024C11.173 10.6426 11.9149 10.5527 12.2732 10.3986L12.422 10.3346V9.78463V9.23467L12.2468 9.28916C11.7097 9.45633 10.9834 9.49635 10.6055 9.37957C10.3175 9.29057 10.1727 9.20382 10.0099 9.02277C9.87825 8.87634 9.78025 8.67018 9.73979 8.45455L9.71917 8.3446L11.2306 8.35442C12.5834 8.36323 12.747 8.35937 12.7888 8.31753C12.8641 8.24227 12.8834 7.50449 12.819 7.16309C12.7249 6.66437 12.4826 6.19896 12.1785 5.93285C11.7317 5.54186 10.9363 5.36157 10.2393 5.49326ZM10.2592 6.62309C9.98401 6.76064 9.81901 6.99153 9.74252 7.34619L9.72198 7.44141H10.5862C11.0615 7.44141 11.4712 7.43341 11.4967 7.42363C11.5663 7.39691 11.5547 7.18943 11.474 7.01599C11.3244 6.69472 11.0585 6.53397 10.6762 6.5335C10.4699 6.53324 10.4158 6.54487 10.2592 6.62309Z" fill="#EAEAEA"/>
</g>
</g>
<defs>
<clipPath id="clip0_64_303">
<rect width="15" height="15" fill="white"/>
</clipPath>
<clipPath id="clip1_64_303">
<rect width="15" height="15" fill="white"/>
</clipPath>
</defs>
</svg>
