<svg width="25" height="17" viewBox="0 0 25 17" fill="none" xmlns="http://www.w3.org/2000/svg">
<path fill-rule="evenodd" clip-rule="evenodd" d="M0 8.30469V15.9219H3.85933C6.25522 15.9219 7.89849 15.9022 8.19282 15.87C9.23418 15.756 9.98022 15.535 10.5743 15.1647C12.0242 14.2611 12.8132 12.6277 12.6442 10.8797C12.5448 9.85156 12.1949 9.08892 11.5535 8.50249C11.2841 8.2562 10.8609 7.98281 10.5604 7.86084L10.3028 7.7563L10.5835 7.58735C11.4067 7.09204 11.8463 6.52642 12.0638 5.68262C12.2126 5.10537 12.2031 4.18604 12.0418 3.55669C11.6284 1.94336 10.3983 1.00815 8.33389 0.737549C8.09995 0.706885 6.41108 0.6875 3.97598 0.6875H0V8.30469ZM15.978 2.33545L15.9912 3.2998H19.2871H22.583L22.5962 2.33545L22.6095 1.37109H19.2871H15.9647L15.978 2.33545ZM3.07617 5.01191V6.69961L5.28564 6.68169C7.34199 6.66494 7.51943 6.65674 7.84619 6.56279C8.45654 6.3874 8.74761 6.16973 8.94536 5.74063C9.04004 5.53521 9.05762 5.41626 9.05762 4.98091C9.05762 4.50298 9.04668 4.44336 8.91006 4.17524C8.54341 3.45605 7.91772 3.32754 4.77295 3.32539L3.07617 3.32422V5.01191ZM18.4375 4.40518C16.5605 4.64604 15.0042 5.72905 14.2806 7.29775C13.8845 8.1564 13.7208 8.93193 13.685 10.1199C13.6007 12.9093 14.4503 14.5764 16.4856 15.6156C17.0294 15.8934 17.5123 16.0651 18.1172 16.1959C18.6969 16.3214 20.201 16.3237 20.8252 16.2001C22.0531 15.957 23.0235 15.4386 23.7742 14.6247C24.3236 14.0291 24.7676 13.2466 24.8123 12.7956L24.8291 12.626L23.3271 12.6131L21.8251 12.6001L21.667 12.8328C21.133 13.6185 20.2618 13.9952 19.2011 13.8991C17.7624 13.7687 16.8467 12.8675 16.7145 11.4517L16.6851 11.1367H20.8425H25V10.4583C25 9.59556 24.9299 8.91406 24.7806 8.32549C24.3962 6.81025 23.395 5.53936 22.112 4.93813C21.0854 4.45703 19.6527 4.24927 18.4375 4.40518ZM18.9697 6.82105C18.2323 6.9273 17.7418 7.17871 17.396 7.62778C17.1597 7.93481 16.92 8.43486 16.8448 8.77773C16.8165 8.90698 16.7816 9.05117 16.7674 9.09814C16.7429 9.17876 16.8866 9.18359 19.3139 9.18359H21.8862L21.8522 8.91099C21.8159 8.62075 21.6938 8.22617 21.5602 7.96792C21.3442 7.5502 20.7705 7.10513 20.2348 6.93965C19.9301 6.84556 19.2454 6.78135 18.9697 6.82105ZM3.07617 11.2626V13.2927L5.35889 13.2722C7.82715 13.25 7.90571 13.2422 8.45376 12.9645C8.96455 12.7057 9.29551 12.1756 9.37354 11.4915C9.48521 10.5123 9.1647 9.83311 8.43335 9.49917C7.9168 9.26328 7.5874 9.23599 5.23682 9.23413L3.07617 9.23242V11.2626Z" fill="#262626"/>
</svg>
