<svg width="15" height="15" viewBox="0 0 15 15" fill="none" xmlns="http://www.w3.org/2000/svg">
<g clip-path="url(#clip0_22_690)">
<g clip-path="url(#clip1_22_690)">
<path fill-rule="evenodd" clip-rule="evenodd" d="M0.938723 0.0512695C0.939338 0.0794531 1.20694 3.11256 1.53339 6.79148C1.92773 11.2356 2.13828 13.4874 2.16078 13.5013C2.17945 13.5129 3.38835 13.8558 4.84728 14.2634L7.49988 15.0046L10.152 14.2639C11.6107 13.8565 12.8193 13.5138 12.8378 13.5024C12.8599 13.4887 13.0742 11.1997 13.4659 6.79207C13.7928 3.11282 14.0609 0.0794531 14.0615 0.0512695C14.0626 0.00257813 13.731 0 7.50011 0C1.26922 0 0.937669 0.00257813 0.938723 0.0512695ZM3.36579 2.76715C3.3585 2.77441 3.3754 3.10731 3.40335 3.50689C3.4313 3.90647 3.45483 4.24989 3.45565 4.27002C3.45682 4.29908 4.11963 4.30664 6.6679 4.30664H9.87866L9.86194 4.4458C9.85274 4.52235 9.82362 4.89478 9.79722 5.27344C9.77082 5.6521 9.74085 5.96994 9.73063 5.97976C9.7204 5.98954 8.34858 6.01266 6.68217 6.03108C5.01576 6.04951 3.64619 6.07072 3.63869 6.07822C3.63119 6.08569 3.66005 6.42516 3.70277 6.83253C3.74551 7.23993 3.78023 7.58312 3.77993 7.59521C3.77964 7.60731 5.09117 7.61719 6.69445 7.61719C8.29772 7.61719 9.60919 7.6205 9.60881 7.62451C9.58464 7.88994 9.34977 9.90797 9.34221 9.91515C9.33615 9.92089 8.91755 10.0365 8.412 10.1721L7.49287 10.4186L6.58095 10.172C6.07942 10.0364 5.6634 9.9201 5.65649 9.91354C5.6496 9.907 5.6172 9.59857 5.58453 9.22816L5.52512 8.55469H4.69411H3.86308L3.88051 8.7085C3.89012 8.79308 3.94441 9.38256 4.00118 10.0184C4.05796 10.6543 4.10973 11.18 4.11626 11.1865C4.1228 11.193 4.88352 11.4082 5.80678 11.6648L7.48546 12.1312L9.16394 11.6696C10.0871 11.4157 10.8552 11.2001 10.8708 11.1904C10.8987 11.1732 11.6612 2.81909 11.6389 2.77588C11.627 2.75285 3.38879 2.74415 3.36579 2.76715Z" fill="#EAEAEA"/>
</g>
</g>
<defs>
<clipPath id="clip0_22_690">
<rect width="15" height="15" fill="white"/>
</clipPath>
<clipPath id="clip1_22_690">
<rect width="15" height="15" fill="white"/>
</clipPath>
</defs>
</svg>
