<svg width="19" height="25" viewBox="0 0 19 25" fill="none" xmlns="http://www.w3.org/2000/svg">
<path fill-rule="evenodd" clip-rule="evenodd" d="M4.83697 0.0341656C4.48766 0.0847027 3.88268 0.264732 3.55807 0.414683C3.05573 0.646812 2.69655 0.897154 2.24244 1.33163C1.37032 2.1661 0.884729 3.22284 0.82135 4.42406C0.738879 5.98851 1.43312 7.48299 2.67433 8.41273L2.90426 8.58495L2.63512 8.79261C1.93605 9.33192 1.35665 10.1409 1.07311 10.9735C0.71261 12.0321 0.71261 12.9679 1.07311 14.0265C1.35665 14.8591 1.93605 15.6681 2.63512 16.2074L2.90426 16.415L2.67433 16.5872C1.01705 17.8287 0.386682 20.0191 1.11608 22.0018C1.52872 23.1235 2.62028 24.2231 3.75822 24.6635C5.51686 25.344 7.43785 24.9702 8.78268 23.6859C9.26178 23.2283 9.53512 22.8503 9.81652 22.2562C10.2394 21.3637 10.2456 21.3124 10.2776 18.4929L10.3057 16.014L10.5987 16.2368C11.011 16.5503 11.7901 16.9212 12.3077 17.0504C12.9392 17.2079 14.0333 17.2071 14.6237 17.0486C15.4851 16.8173 16.1173 16.4647 16.7524 15.8615C18.8101 13.9069 18.6204 10.5327 16.3546 8.78456L16.0959 8.58495L16.3258 8.41268C17.0808 7.84691 17.7122 6.94891 17.9877 6.04911C18.388 4.74129 18.1753 3.24735 17.4272 2.11463C17.1572 1.70575 16.5182 1.05663 16.1349 0.801793C15.7137 0.521763 15.1934 0.281578 14.6988 0.138707L14.3096 0.0263043L9.64655 0.0196637C7.08185 0.0160016 4.91754 0.0225445 4.83697 0.0341656ZM4.72345 1.63373C4.58043 1.66835 4.27692 1.78905 4.04894 1.90204C3.45236 2.19764 2.98746 2.67152 2.69401 3.28309C2.43492 3.82313 2.37115 4.1037 2.37115 4.70404C2.37115 5.57709 2.64547 6.23539 3.26969 6.86053C3.72423 7.31571 4.15431 7.56522 4.74464 7.7162C5.0859 7.80345 5.28951 7.81249 6.91998 7.81249H8.71881V4.68749V1.56249L6.85114 1.56664C5.50685 1.56961 4.91061 1.58841 4.72345 1.63373ZM10.2813 4.68749V7.81249H12.0801C13.7106 7.81249 13.9142 7.80345 14.2555 7.7162C14.8285 7.56966 15.2767 7.31332 15.7054 6.8869C16.343 6.25277 16.629 5.57137 16.629 4.68651C16.629 3.43021 15.9653 2.37508 14.8467 1.85282C14.6319 1.75248 14.3397 1.64613 14.1974 1.61644C14.0351 1.5826 13.2567 1.56249 12.11 1.56249H10.2813V4.68749ZM4.74254 9.45321C3.63678 9.72064 2.72228 10.639 2.43927 11.7663C2.32848 12.2075 2.367 13.0903 2.51534 13.5099C2.83458 14.413 3.58624 15.1546 4.51959 15.4874C4.82809 15.5974 4.89147 15.601 6.77789 15.6154L8.71881 15.6302V12.5026V9.37499L6.87555 9.37904C5.45255 9.38221 4.96622 9.39911 4.74254 9.45321ZM12.6501 9.45106C11.6625 9.69911 10.8296 10.4654 10.4495 11.4756C10.3253 11.8057 10.3119 11.9019 10.3097 12.4756C10.3076 13.0457 10.321 13.149 10.4409 13.4901C10.8058 14.5275 11.6642 15.3125 12.6983 15.5545C12.9486 15.6131 13.1903 15.6288 13.6016 15.6134C14.4929 15.5799 15.118 15.313 15.7162 14.7105C16.0724 14.3517 16.3369 13.9337 16.4924 13.4837C16.5878 13.2076 16.6046 13.0608 16.6046 12.5C16.6046 11.9391 16.5878 11.7924 16.4924 11.5162C16.2617 10.8488 15.7241 10.1721 15.1474 9.82318C14.6441 9.51869 14.2367 9.40858 13.5528 9.39222C13.1281 9.38207 12.8535 9.39994 12.6501 9.45106ZM4.72565 17.286C3.59406 17.5825 2.72057 18.4584 2.43927 19.5788C2.32111 20.0495 2.36461 20.9096 2.52887 21.3497C2.87067 22.2656 3.53346 22.9293 4.45895 23.2826C4.75421 23.3953 4.85861 23.4085 5.47174 23.4106C6.04694 23.4127 6.20953 23.3959 6.49713 23.3048C7.44059 23.0058 8.23658 22.2163 8.57867 21.2402C8.68556 20.9353 8.69059 20.8495 8.70748 19.0552L8.72506 17.1875L6.90309 17.1902C5.27281 17.1926 5.04371 17.2027 4.72565 17.286Z" fill="#262626"/>
</svg>
