<svg width="15" height="15" viewBox="0 0 15 15" fill="none" xmlns="http://www.w3.org/2000/svg">
<g id="Property 1=Figma">
<path id="Vector" fill-rule="evenodd" clip-rule="evenodd" d="M4.70204 0.0205116C4.49245 0.0508338 4.12946 0.158851 3.93469 0.248822C3.63329 0.388099 3.41778 0.538305 3.14532 0.798988C2.62205 1.29967 2.33069 1.93371 2.29266 2.65445C2.24318 3.59312 2.65972 4.48981 3.40445 5.04765L3.54241 5.15098L3.38093 5.27558C2.96148 5.59916 2.61385 6.08456 2.44372 6.58413C2.22742 7.21928 2.22742 7.78073 2.44372 8.41588C2.61385 8.91545 2.96148 9.40084 3.38093 9.72443L3.54241 9.84903L3.40445 9.95236C2.41009 10.6972 2.03186 12.0115 2.4695 13.2011C2.71709 13.8741 3.37202 14.5339 4.05478 14.7981C5.10997 15.2064 6.26257 14.9821 7.06946 14.2115C7.35692 13.937 7.52093 13.7102 7.68976 13.3538C7.94347 12.8182 7.94722 12.7874 7.96641 11.0957L7.98329 9.60844L8.15907 9.74209C8.40648 9.93021 8.87388 10.1527 9.18446 10.2302C9.56339 10.3248 10.2198 10.3243 10.5741 10.2292C11.0909 10.0904 11.4703 9.87885 11.8513 9.51689C13.0859 8.34413 12.9721 6.3196 11.6126 5.27075L11.4574 5.15098L11.5953 5.04762C12.0483 4.70816 12.4272 4.16936 12.5924 3.62948C12.8327 2.84479 12.705 1.94842 12.2562 1.26879C12.0942 1.02346 11.7108 0.633988 11.4808 0.481088C11.2281 0.31307 10.9159 0.168959 10.6191 0.0832362L10.3856 0.0157948L7.58778 0.0118104C6.04896 0.00961315 4.75038 0.0135389 4.70204 0.0205116ZM4.63392 0.980248C4.54811 1.00102 4.366 1.07344 4.22922 1.14123C3.87127 1.3186 3.59233 1.60292 3.41626 1.96987C3.26081 2.29389 3.22255 2.46223 3.22255 2.82244C3.22255 3.34626 3.38714 3.74124 3.76167 4.11633C4.03439 4.38944 4.29244 4.53914 4.64664 4.62973C4.85139 4.68208 4.97356 4.6875 5.95184 4.6875H7.03114V2.8125V0.937504L5.91053 0.939994C5.10396 0.941781 4.74622 0.95306 4.63392 0.980248ZM7.96864 2.8125V4.6875H9.04794C10.0262 4.6875 10.1484 4.68208 10.3531 4.62973C10.6969 4.54181 10.9659 4.388 11.2231 4.13215C11.6056 3.75167 11.7772 3.34284 11.7772 2.81192C11.7772 2.05814 11.3791 1.42506 10.7079 1.1117C10.579 1.0515 10.4036 0.987689 10.3183 0.969877C10.2209 0.949574 9.75384 0.937504 9.06584 0.937504H7.96864V2.8125ZM4.64538 5.67194C3.98192 5.8324 3.43322 6.38344 3.26342 7.05979C3.19694 7.32452 3.22006 7.8542 3.30906 8.10595C3.5006 8.64783 3.9516 9.09279 4.51161 9.29245C4.69671 9.35845 4.73473 9.36059 5.86659 9.36923L7.03114 9.37811V7.50156V5.625L5.92518 5.62744C5.07138 5.62934 4.77959 5.63948 4.64538 5.67194ZM9.38989 5.67065C8.79733 5.81948 8.29761 6.27923 8.06954 6.88538C7.99504 7.0834 7.98698 7.14118 7.98569 7.48536C7.9844 7.82743 7.99243 7.88942 8.06441 8.09409C8.28335 8.71653 8.79839 9.18753 9.41884 9.33273C9.56904 9.36788 9.71406 9.37732 9.96083 9.36806C10.4956 9.34796 10.8706 9.1878 11.2296 8.8263C11.4433 8.61103 11.602 8.36025 11.6953 8.09025C11.7525 7.92454 11.7626 7.83651 11.7626 7.5C11.7626 7.1635 11.7525 7.07546 11.6953 6.90976C11.5569 6.5093 11.2343 6.10325 10.8883 5.89392C10.5863 5.71122 10.3419 5.64516 9.93153 5.63535C9.67674 5.62925 9.51194 5.63997 9.38989 5.67065ZM4.63524 10.3716C3.95629 10.5495 3.43219 11.0751 3.26342 11.7473C3.19252 12.0297 3.21862 12.5457 3.31718 12.8098C3.52225 13.3594 3.91993 13.7576 4.47522 13.9696C4.65238 14.0372 4.71502 14.0451 5.0829 14.0464C5.42801 14.0476 5.52557 14.0375 5.69813 13.9829C6.26421 13.8035 6.7418 13.3298 6.94706 12.7441C7.01119 12.5612 7.01421 12.5097 7.02434 11.4331L7.03489 10.3125L5.94171 10.3141C4.96354 10.3155 4.82608 10.3216 4.63524 10.3716Z" fill="#EAEAEA"/>
</g>
</svg>
