<svg width="25" height="25" viewBox="0 0 25 25" fill="none" xmlns="http://www.w3.org/2000/svg">
<path fill-rule="evenodd" clip-rule="evenodd" d="M11.3281 0.565246C11.2609 0.576477 11.0083 0.609436 10.7666 0.63844C10.5249 0.667444 10.0322 0.757629 9.67183 0.838781C6.65796 1.51769 3.95796 3.33404 2.17495 5.88209C1.09326 7.42789 0.413184 9.14376 0.113135 11.084C-0.00678711 11.8593 -0.00751954 13.7061 0.111768 14.5048C0.300879 15.7711 0.680518 16.9896 1.24434 18.1397C2.44795 20.595 4.41167 22.5501 6.90913 23.7796C8.27393 24.4515 8.86538 24.5978 9.17266 24.3392C9.41685 24.1337 9.43931 23.9831 9.39961 22.8172C9.36421 21.7797 9.36284 21.7698 9.25957 21.7956C8.9477 21.8733 8.17866 21.9307 7.82754 21.9025C6.95259 21.8322 6.31963 21.5585 5.77905 21.0165C5.51079 20.7476 5.3896 20.578 5.2543 20.2821C4.7293 19.1345 4.49268 18.8282 3.67544 18.2388C3.34351 17.9994 3.24043 17.8061 3.3873 17.6987C3.63984 17.5141 4.33545 17.6127 4.81719 17.9014C5.20015 18.1309 5.46572 18.3983 5.81133 18.9022C6.50757 19.9173 7.31787 20.3193 8.37085 20.172C8.7688 20.1164 9.30581 19.9617 9.38853 19.879C9.41084 19.8567 9.46099 19.7018 9.49995 19.5347C9.59092 19.145 9.77261 18.7629 10.0095 18.4632L10.1972 18.2257L9.74946 18.1656C9.10347 18.079 8.09771 17.8115 7.58267 17.5895C6.71421 17.2151 5.92778 16.573 5.44575 15.8446C5.02217 15.2047 4.69927 14.2067 4.58525 13.1853C4.50645 12.4794 4.55249 11.4123 4.6833 10.9131C4.82217 10.3831 5.14814 9.72477 5.50742 9.24899L5.80537 8.85436L5.70073 8.54098C5.61191 8.27506 5.59595 8.11281 5.59517 7.47072C5.59424 6.70734 5.62163 6.52755 5.84331 5.84083L5.92021 5.60255L6.36582 5.62692C7.05776 5.66466 7.91377 5.99156 8.88711 6.58971L9.35425 6.87677L9.64536 6.80763C11.4299 6.38375 13.7212 6.38463 15.3267 6.80983L15.5899 6.87955L16.1812 6.52965C17.2038 5.92438 18.0576 5.61525 18.7064 5.61525H19.0351L19.1099 5.84718C19.3299 6.52921 19.3568 6.70792 19.3548 7.47072C19.3532 8.08243 19.3341 8.28917 19.2555 8.54908L19.1582 8.87057L19.3014 9.03737C19.7232 9.52853 20.1071 10.2734 20.2933 10.9619C20.4227 11.4404 20.4243 13.1458 20.2959 13.7878C20.0476 15.0307 19.6203 15.8726 18.864 16.6092C18.0012 17.4495 16.7586 17.9547 14.9796 18.1881L14.7494 18.2184L14.9564 18.4726C15.178 18.7446 15.3298 19.0571 15.4625 19.5147C15.5325 19.7562 15.5494 20.1338 15.5729 21.9838L15.6005 24.1679L15.7316 24.2989C15.9479 24.515 16.2732 24.5136 16.8708 24.2938C18.103 23.8407 19.5878 22.9886 20.5566 22.1787C21.1708 21.6651 22.1087 20.6883 22.5379 20.115C23.8673 18.3392 24.7016 16.2675 24.9064 14.2334C24.9362 13.938 24.9804 13.6582 25.0047 13.6115C25.0669 13.4918 25.0625 11.8999 25 11.9385C24.9704 11.9568 24.9511 11.8882 24.9511 11.7645C24.9511 11.4347 24.8109 10.5691 24.6511 9.91212C24.2687 8.33981 23.5424 6.8254 22.5019 5.43029C22.0194 4.78346 20.8062 3.58112 20.1171 3.06681C18.4225 1.80211 16.5183 0.995031 14.4287 0.65592C13.9653 0.580725 11.6413 0.512756 11.3281 0.565246ZM0.0200195 12.793C0.0200195 13.263 0.0273437 13.4552 0.0363281 13.2202C0.0452637 12.9853 0.0452637 12.6007 0.0363281 12.3657C0.0273437 12.1308 0.0200195 12.323 0.0200195 12.793Z" fill="#262626"/>
</svg>
