<svg width="15" height="15" viewBox="0 0 15 15" fill="none" xmlns="http://www.w3.org/2000/svg">
<g clip-path="url(#clip0_22_711)">
<g clip-path="url(#clip1_22_711)">
<path fill-rule="evenodd" clip-rule="evenodd" d="M1.21579 0.0460567C1.08205 0.115959 1.03163 0.171652 0.982357 0.303869C0.939877 0.417893 0.965541 0.785569 1.43086 6.72782C1.97262 13.6462 1.91959 13.1467 2.12725 13.2867C2.26644 13.3805 7.34209 14.9834 7.49992 14.9834C7.65774 14.9834 12.7334 13.3805 12.8726 13.2867C13.0802 13.1467 13.0272 13.6462 13.569 6.72782C14.0406 0.70427 14.0605 0.41927 14.0159 0.299797C13.9884 0.225852 13.9264 0.142063 13.8643 0.0947188L13.7594 0.0146504L7.5315 0.00738481C1.92522 0.000851605 1.29487 0.00471879 1.21579 0.0460567ZM3.31957 2.84912C3.32816 2.90148 3.4186 4.02867 3.52052 5.35401L3.70585 7.76367H6.65757H9.60929L9.60838 7.85889C9.60577 8.13132 9.46632 9.79301 9.44444 9.81281C9.43037 9.82556 8.99699 9.94928 8.48136 10.0878L7.54386 10.3396L6.59171 10.0823L5.63956 9.82494L5.63168 9.17517L5.6238 8.52539H4.70151H3.77921L3.78103 8.6499C3.78202 8.71837 3.82497 9.30697 3.87648 9.95789C3.95151 10.9063 3.97878 11.1463 4.01382 11.1662C4.03787 11.1799 4.83203 11.436 5.77864 11.7353L7.49974 12.2794L9.23567 11.7307C10.1904 11.4289 10.9859 11.1676 11.0034 11.15C11.0225 11.1309 11.1085 10.1616 11.2181 8.73047C11.3188 7.41724 11.4083 6.29335 11.4171 6.23291L11.4332 6.12305H8.41834H5.40352L5.32043 5.33936C5.27473 4.90831 5.23052 4.51289 5.22223 4.46057L5.20714 4.3655L8.38234 4.35803L11.5575 4.35059L11.6063 3.73535C11.6331 3.39697 11.6622 3.03774 11.6711 2.93701L11.6872 2.75391H7.49555H3.30393L3.31957 2.84912Z" fill="#EAEAEA"/>
</g>
</g>
<defs>
<clipPath id="clip0_22_711">
<rect width="15" height="15" fill="white"/>
</clipPath>
<clipPath id="clip1_22_711">
<rect width="15" height="15" fill="white"/>
</clipPath>
</defs>
</svg>
