<svg width="15" height="15" viewBox="0 0 15 15" fill="none" xmlns="http://www.w3.org/2000/svg">
<g clip-path="url(#clip0_24_305)">
<g clip-path="url(#clip1_24_305)">
<path fill-rule="evenodd" clip-rule="evenodd" d="M2.30911 0.207048C1.33514 0.351775 0.538 0.976238 0.179846 1.87501C-0.00990977 2.35123 -0.00167736 2.07862 0.00699452 7.60304L0.0148461 12.6123L0.0793578 12.8327C0.262053 13.4565 0.652112 14.0079 1.15611 14.3546C1.36948 14.5014 1.7537 14.6704 2.03985 14.7433L2.29991 14.8096H7.50011H12.7003L12.9604 14.7433C13.2465 14.6704 13.6307 14.5014 13.8441 14.3546C14.2157 14.099 14.5991 13.6371 14.7792 13.2282C14.8628 13.0383 14.9708 12.6561 14.9708 12.5499C14.9708 12.5136 14.984 12.4758 15.0001 12.4658C15.0194 12.4539 15.0294 10.756 15.0294 7.46725C15.0294 4.15439 15.0196 2.49285 15.0001 2.50489C14.9837 2.51503 14.9708 2.49238 14.9708 2.45353C14.9708 2.41533 14.9451 2.28575 14.9136 2.16554C14.6721 1.24366 13.9557 0.529548 13.01 0.267986L12.7296 0.190437L7.60265 0.186365C4.78282 0.184138 2.40073 0.193425 2.30911 0.207048ZM0.0144359 7.50001C0.0144359 10.2473 0.0178637 11.3712 0.0220824 9.99757C0.0263012 8.62389 0.0263012 6.37612 0.0220824 5.00245C0.0178637 3.62878 0.0144359 4.75269 0.0144359 7.50001ZM10.4444 3.45522C10.2893 3.49319 10.1157 3.59881 10.0216 3.71254C9.70704 4.0929 9.83753 4.71616 10.2748 4.92168C10.4708 5.01382 10.7797 5.01487 10.9673 4.92405C11.5932 4.62106 11.5026 3.60188 10.837 3.45915C10.6742 3.42423 10.5753 3.42323 10.4444 3.45522ZM5.23449 3.94533C5.22374 3.95605 5.21495 4.0324 5.21495 4.11496C5.21495 4.19749 5.19541 4.34008 5.17154 4.43178C5.14763 4.5235 4.67205 5.91168 4.11468 7.51665C3.55731 9.12162 3.10842 10.4534 3.11715 10.4762C3.14012 10.5361 4.37132 10.5374 4.42918 10.4776C4.45045 10.4556 4.57329 10.1061 4.70217 9.70088L4.93643 8.96421L6.10842 8.97185L7.28038 8.9795L7.52153 9.68262C7.65412 10.0693 7.77579 10.4154 7.79188 10.4517C7.82103 10.5174 7.82331 10.5176 8.52316 10.5176C8.9424 10.5176 9.2322 10.5062 9.24263 10.4893C9.26381 10.455 6.97473 3.97873 6.93064 3.9482C6.89179 3.92134 5.26124 3.91855 5.23449 3.94533ZM6.06456 5.10806C6.06456 5.12424 5.52509 6.95485 5.31436 7.65382C5.29989 7.70178 5.35031 7.70509 6.0919 7.70509C6.61303 7.70509 6.88488 7.6948 6.88488 7.67511C6.88488 7.61919 6.11645 5.14178 6.09043 5.11378C6.07619 5.09848 6.06456 5.09591 6.06456 5.10806ZM9.9389 8.0195L9.9464 10.5029H10.6202H11.2941V8.02735V5.55177L10.6127 5.54391L9.93143 5.53603L9.9389 8.0195Z" fill="#EAEAEA"/>
</g>
</g>
<defs>
<clipPath id="clip0_24_305">
<rect width="15" height="15" fill="white"/>
</clipPath>
<clipPath id="clip1_24_305">
<rect width="15" height="15" fill="white"/>
</clipPath>
</defs>
</svg>
