<svg width="15" height="15" viewBox="0 0 15 15" fill="none" xmlns="http://www.w3.org/2000/svg">
<g clip-path="url(#clip0_22_714)">
<g clip-path="url(#clip1_22_714)">
<path fill-rule="evenodd" clip-rule="evenodd" d="M0.926733 0.0607324C0.860991 0.112441 0.849594 0.143936 0.849858 0.273135C0.850532 0.584238 2.04748 12.3882 2.08434 12.4472C2.10461 12.4797 2.14818 12.5204 2.18117 12.5377C2.21415 12.5551 3.44735 12.9712 4.92163 13.4624C6.88044 14.115 7.63833 14.3555 7.73667 14.3555C7.84162 14.3555 8.40312 14.156 10.2849 13.4503C11.6124 12.9525 12.7276 12.5193 12.7631 12.4876C12.7987 12.4559 12.8352 12.3853 12.8443 12.3307C12.8768 12.1353 14.0388 0.421875 14.0393 0.283799C14.0398 0.176689 14.0238 0.125654 13.9728 0.0713965L13.9057 0H7.45484H1.00393L0.926733 0.0607324ZM3.40882 3.04664C3.23521 3.11669 3.19592 3.37629 3.33751 3.51788L3.42315 3.60352H5.13927H6.8554V7.00509C6.8554 9.71411 6.84795 10.4039 6.81877 10.393C6.79865 10.3854 6.44459 10.2892 6.03204 10.1791L5.28192 9.97895L5.15963 9.30773C5.03369 8.61633 4.99513 8.49243 4.88817 8.43519C4.75909 8.3661 4.50502 8.46193 4.45276 8.59939C4.41942 8.68705 4.71757 10.2113 4.79301 10.3391C4.81988 10.3845 4.87677 10.4424 4.91943 10.4676C5.02282 10.5287 7.03463 11.1035 7.14499 11.1035C7.27827 11.1035 7.32189 11.0763 7.384 10.9546C7.44004 10.8447 7.44133 10.7568 7.44133 7.04561C7.44133 2.91896 7.4498 3.12946 7.28102 3.05259C7.18926 3.01078 3.51168 3.00513 3.40882 3.04664ZM8.09632 3.10523C7.93422 3.17062 7.93938 3.10257 7.93938 5.17966V7.09436L8.02501 7.17999L8.11065 7.26562H9.18224C10.1633 7.26562 10.2538 7.26976 10.2538 7.31449C10.2538 7.36236 9.87151 9.59317 9.81183 9.89347L9.78157 10.0457L8.99963 10.3006C8.56958 10.4407 8.18166 10.5735 8.13763 10.5956C8.03002 10.6496 7.95962 10.7905 7.98426 10.9027C8.00893 11.015 8.15029 11.1033 8.30559 11.1034C8.3759 11.1035 8.77999 10.9851 9.31633 10.8072C9.99415 10.5824 10.2288 10.4923 10.2885 10.4337C10.363 10.3605 10.3831 10.2676 10.6784 8.64258C10.9111 7.36198 10.9836 6.90662 10.9651 6.84135C10.9514 6.79269 10.8967 6.72454 10.8418 6.68754C10.7438 6.62147 10.7372 6.62109 9.66356 6.62109H8.58391V5.1123V3.60352H9.75921H10.9345L10.9171 3.66943C10.8347 3.98086 10.7449 4.51008 10.7626 4.58016C10.7935 4.7025 10.9087 4.80469 11.0157 4.80469C11.134 4.80469 11.2578 4.73915 11.3015 4.65337C11.347 4.56425 11.6308 3.42234 11.6308 3.32856C11.6308 3.26959 11.598 3.24015 11.4503 3.16635L11.2699 3.07617L9.71448 3.07802C8.85904 3.07904 8.13086 3.09129 8.09632 3.10523Z" fill="#EAEAEA"/>
</g>
</g>
<defs>
<clipPath id="clip0_22_714">
<rect width="15" height="15" fill="white"/>
</clipPath>
<clipPath id="clip1_22_714">
<rect width="15" height="15" fill="white"/>
</clipPath>
</defs>
</svg>
