<svg width="21" height="21" viewBox="0 0 21 21" fill="none" xmlns="http://www.w3.org/2000/svg">
<path fill-rule="evenodd" clip-rule="evenodd" d="M2.36261 0.559566C1.70363 0.71938 1.05729 1.22509 0.76486 1.80957C0.28776 2.76328 0.462955 3.83989 1.21852 4.59716C1.70207 5.08173 2.2652 5.32421 2.90714 5.32421C3.5424 5.32421 4.09416 5.08789 4.58151 4.60693C5.53361 3.66748 5.53293 2.154 4.58 1.20229C3.99005 0.613081 3.14806 0.369038 2.36261 0.559566ZM14.455 6.93042C13.289 7.18867 12.3419 7.81948 11.7402 8.73881L11.5986 8.95522L11.5741 8.05522L11.5497 7.15527L9.55998 7.14252L7.57023 7.12978V13.8198V20.5098H9.64543H11.7206L11.7215 16.9819C11.7225 12.7145 11.7478 12.3864 12.1366 11.5909C12.5264 10.7935 13.3508 10.3854 14.4076 10.4669C15.3574 10.5402 15.9398 11.0543 16.1872 12.0381C16.3259 12.59 16.3577 13.5071 16.3585 16.9819L16.3593 20.4609H18.4379H20.5166L20.4971 16.0542C20.4786 11.8559 20.4728 11.6174 20.3746 11.0127C19.9877 8.62876 19.0051 7.4206 17.0917 6.97612C16.4654 6.83066 15.0188 6.80561 14.455 6.93042ZM0.831949 13.8203V20.5098H2.90714H4.98234V13.8203V7.13086H2.90714H0.831949V13.8203Z" fill="#262626"/>
</svg>
