<svg width="25" height="21" viewBox="0 0 25 21" fill="none" xmlns="http://www.w3.org/2000/svg">
<path fill-rule="evenodd" clip-rule="evenodd" d="M3.58887 0.88487C2.57466 0.937946 1.70957 1.01583 0.891504 1.12764C0.509033 1.17989 0.186475 1.22266 0.174756 1.22266C0.163037 1.22266 0.118945 1.25718 0.076709 1.29937C0.00751953 1.36861 0 2.27349 0 10.5311C0 16.7485 0.0162109 19.7164 0.0505371 19.7806C0.0993652 19.8718 0.175879 19.875 2.29316 19.875C4.22085 19.875 4.49448 19.8657 4.56196 19.7983C4.63013 19.7301 4.63867 19.3671 4.63862 16.539L4.63857 13.3565L5.55415 13.3736C9.56938 13.4491 12.3708 11.9483 13.3278 9.20924C14.1486 6.85977 13.6735 4.33668 12.1192 2.79122C10.9728 1.65128 9.47998 1.07745 7.15332 0.882233C6.48828 0.826423 4.67974 0.827741 3.58887 0.88487ZM5.41992 4.52271C5.32593 4.53365 5.11172 4.55543 4.94385 4.5711L4.63867 4.59957V7.10645V9.61334L4.96401 9.64815C5.14297 9.66734 5.58794 9.67095 5.95278 9.65626C7.08062 9.6108 7.78198 9.35772 8.35078 8.79102C8.71533 8.42779 8.90444 8.08341 9.0082 7.59356C9.31904 6.12593 8.64458 4.99708 7.24272 4.63853C6.871 4.54346 5.8168 4.47647 5.41992 4.52271ZM19.7021 5.74361C18.4749 5.9212 17.8975 6.08487 17.1763 6.45953C16.0408 7.04947 15.1862 8.04298 14.8752 9.13468C14.6351 9.97769 14.6754 11.0244 14.9758 11.7426C15.4758 12.9383 16.6329 13.852 18.5303 14.5496C20.2084 15.1666 20.4584 15.3412 20.4588 15.8968C20.4592 16.4282 20.0585 16.683 19.1406 16.7351C18.2706 16.7845 16.9655 16.476 15.8733 15.9628C15.3962 15.7386 15.3579 15.7284 15.2516 15.7981C15.1893 15.8389 15.1268 15.9215 15.1128 15.9816C15.0988 16.0417 14.9337 16.7124 14.7458 17.472C14.558 18.2316 14.4043 18.918 14.4043 18.9972C14.4043 19.1262 14.4389 19.1587 14.7339 19.3072C16.3159 20.1036 18.95 20.3846 20.9473 19.9702C23.5934 19.4212 25.1 17.7091 24.9841 15.3828C24.9086 13.8657 24.2207 12.7809 22.8028 11.9431C22.5515 11.7946 21.9708 11.5275 21.5123 11.3495C19.4389 10.5448 19.2383 10.4164 19.2383 9.89449C19.2383 9.70543 19.266 9.63956 19.4146 9.47506C19.6478 9.2169 19.9355 9.13282 20.5856 9.13282C21.3706 9.13282 22.1749 9.32296 23.0069 9.70518C23.4339 9.90137 23.5897 9.8961 23.6733 9.68277C23.7903 9.38399 24.4188 6.82086 24.4047 6.69957C24.3868 6.54488 24.1808 6.43121 23.5107 6.20635C22.6167 5.90631 21.7704 5.76866 20.6543 5.7418C20.2112 5.73116 19.7827 5.73199 19.7021 5.74361Z" fill="#262626"/>
</svg>
