<svg width="15" height="15" viewBox="0 0 15 15" fill="none" xmlns="http://www.w3.org/2000/svg">
<g clip-path="url(#clip0_48_177)">
<path fill-rule="evenodd" clip-rule="evenodd" d="M4.64651 0.0389242C4.57183 0.0660993 4.4732 0.138566 4.42733 0.199957C4.34607 0.308697 4.34356 0.357114 4.33176 2.0591C4.31881 3.92674 4.35651 4.73899 4.4822 5.30033C5.06795 7.91618 7.25366 9.84486 9.93732 10.114C10.1643 10.1367 10.6718 10.1554 11.0651 10.1554C11.8609 10.1554 11.9581 10.1788 12.0967 10.4045C12.26 10.6705 12.1515 11.0316 11.868 11.1651C11.7371 11.2268 11.6184 11.2316 10.7229 11.2119C10.1734 11.1998 9.60954 11.17 9.46982 11.1457C9.24478 11.1065 9.20696 11.1093 9.13869 11.1706C9.06493 11.2369 9.06218 11.2971 9.07393 12.5864L9.08625 13.933L9.19783 14.1703C9.34305 14.4793 9.61401 14.7495 9.91875 14.8893C10.157 14.9986 10.1773 15.001 10.8597 14.9999C11.3716 14.999 11.6456 14.98 11.8899 14.9286C13.4185 14.6067 14.6204 13.4129 14.93 11.9087C15.0041 11.5484 15.0072 11.3832 14.9938 8.5187C14.98 5.5792 14.9776 5.49835 14.8914 5.12142C14.365 2.8183 12.7768 1.05378 10.5763 0.327289C9.70758 0.0404274 9.51453 0.0229832 7.01395 0.00530157C5.29562 -0.00684217 4.751 0.000871224 4.64651 0.0389242ZM1.02924 0.781987C0.656146 0.855957 0.294252 1.15698 0.114799 1.54265L2.57511e-05 1.78924V5.54708C2.57511e-05 9.67144 -0.00770556 9.52228 0.244756 10.274C0.844965 12.0615 2.47817 13.3203 4.40242 13.4786C5.01116 13.5287 6.19288 13.5273 6.5103 13.4762C6.99626 13.3979 7.36576 13.1277 7.58068 12.6933C7.69048 12.4714 7.69155 12.4615 7.70406 11.5712L7.7167 10.6731L7.34751 10.489C5.34834 9.49241 3.90176 7.68315 3.44566 5.60899C3.29334 4.91624 3.2784 4.7056 3.25329 2.898L3.22803 1.07961L3.03104 1.00706C2.60725 0.850972 1.37826 0.712803 1.02924 0.781987ZM11.121 6.37535C10.8788 6.46423 10.7696 6.56094 10.6504 6.79231C10.4836 7.11627 10.5186 7.42671 10.7519 7.69039C11.1562 8.14742 11.8802 8.04038 12.1391 7.48533C12.4321 6.85714 11.7713 6.13678 11.121 6.37535Z" fill="#EAEAEA"/>
</g>
<defs>
<clipPath id="clip0_48_177">
<rect width="15" height="15" fill="white"/>
</clipPath>
</defs>
</svg>
