<svg width="15" height="15" viewBox="0 0 15 15" fill="none" xmlns="http://www.w3.org/2000/svg">
<g clip-path="url(#clip0_22_687)">
<g clip-path="url(#clip1_22_687)">
<path fill-rule="evenodd" clip-rule="evenodd" d="M2.30911 0.634111C1.33514 0.778838 0.538 1.4033 0.179846 2.30207C-0.00990977 2.77829 -0.00167736 2.50568 0.00699452 8.03011L0.0148461 13.0394L0.0793578 13.2597C0.262053 13.8836 0.652112 14.4349 1.15611 14.7817C1.36948 14.9285 1.7537 15.0975 2.03985 15.1704L2.29991 15.2366H7.50011H12.7003L12.9604 15.1704C13.2465 15.0975 13.6307 14.9285 13.8441 14.7817C14.2157 14.526 14.5991 14.0642 14.7792 13.6552C14.8628 13.4653 14.9708 13.0831 14.9708 12.977C14.9708 12.9407 14.984 12.9029 15.0001 12.8929C15.0194 12.8809 15.0294 11.183 15.0294 7.89432C15.0294 4.58146 15.0196 2.91991 15.0001 2.93195C14.9837 2.94209 14.9708 2.91944 14.9708 2.8806C14.9708 2.84239 14.9451 2.71281 14.9136 2.59261C14.6721 1.67072 13.9557 0.956611 13.01 0.695049L12.7296 0.6175L7.60265 0.613428C4.78282 0.611201 2.40073 0.620488 2.30911 0.634111ZM0.0144359 7.92707C0.0144359 10.6744 0.0178637 11.7983 0.0220824 10.4246C0.0263012 9.05096 0.0263012 6.80318 0.0220824 5.42951C0.0178637 4.05584 0.0144359 5.17976 0.0144359 7.92707ZM4.2846 4.35455C3.8293 4.36636 3.4371 4.38358 3.41302 4.39281C3.37455 4.40758 3.36931 4.80112 3.36969 7.64052C3.36995 9.41749 3.38076 10.8881 3.39377 10.9086C3.41194 10.9372 3.56542 10.944 4.05981 10.9379L4.70226 10.93L4.70996 9.90115L4.71764 8.87231L5.33985 8.85684C6.02607 8.83979 6.29938 8.79912 6.69887 8.65457C7.23143 8.46186 7.69467 8.04273 7.90766 7.56086C8.06258 7.21035 8.13055 6.57476 8.05757 6.15854C7.90669 5.29779 7.31117 4.68543 6.40025 4.45434C6.13593 4.38731 5.45636 4.31617 5.2003 4.32874C5.15197 4.33111 4.7399 4.34271 4.2846 4.35455ZM4.76574 5.57356C4.75499 5.58429 4.7462 6.06716 4.7462 6.64659V7.70008L5.25157 7.6854C5.6552 7.67368 5.7953 7.65839 5.94738 7.6094C6.51591 7.42636 6.76294 7.089 6.73189 6.53814C6.70218 6.01103 6.39858 5.70183 5.80719 5.59636C5.57636 5.55522 4.80108 5.53823 4.76574 5.57356ZM10.3863 5.90696C9.40168 6.01797 8.78917 6.61788 8.78917 7.47133C8.78917 7.69395 8.87197 7.97869 8.99144 8.16701C9.22066 8.52824 9.5612 8.75239 10.4069 9.09854C10.8589 9.28355 11.045 9.42596 11.045 9.58677C11.045 9.72874 11.004 9.79149 10.861 9.86784C10.7483 9.92802 10.7 9.93359 10.3126 9.93118C9.81398 9.92805 9.49025 9.857 9.06354 9.65705C8.86924 9.566 8.80233 9.54619 8.78437 9.57446C8.77139 9.59491 8.76058 9.85885 8.76031 10.161C8.75979 10.8074 8.7471 10.78 9.10051 10.896C9.45125 11.0111 9.83844 11.0668 10.298 11.0684C10.7477 11.0699 10.9726 11.0385 11.3143 10.9268C11.9818 10.7085 12.3927 10.1627 12.3927 9.49445C12.3927 8.78072 12.0049 8.35891 10.9682 7.94485C10.248 7.65722 10.0586 7.51814 10.088 7.29865C10.1101 7.13354 10.2034 7.06252 10.4578 7.01705C10.8098 6.95415 11.4993 7.06056 11.8855 7.23736C12.1365 7.35227 12.1314 7.36419 12.1223 6.68717L12.1144 6.09851L11.9062 6.03332C11.5349 5.91707 10.8222 5.8578 10.3863 5.90696Z" fill="#EAEAEA"/>
</g>
</g>
<defs>
<clipPath id="clip0_22_687">
<rect width="15" height="15" fill="white"/>
</clipPath>
<clipPath id="clip1_22_687">
<rect width="15" height="15" fill="white"/>
</clipPath>
</defs>
</svg>
