<svg width="15" height="15" viewBox="0 0 15 15" fill="none" xmlns="http://www.w3.org/2000/svg">
<g clip-path="url(#clip0_22_1040)">
<g clip-path="url(#clip1_22_1040)">
<path fill-rule="evenodd" clip-rule="evenodd" d="M7.07081 0.0563363C6.68966 0.159579 6.38916 0.352381 6.03338 0.721961C5.59513 1.17721 5.21201 1.83759 4.92256 2.63672C4.88462 2.74145 4.85072 2.8311 4.84721 2.83597C4.84372 2.8408 4.72398 2.82495 4.58113 2.80075C3.84704 2.6763 3.10709 2.66944 2.55484 2.782C1.66343 2.96367 1.07831 3.44888 0.892979 4.16015C0.819648 4.44161 0.846133 4.99277 0.95002 5.34668C1.10198 5.8643 1.5127 6.5937 1.9728 7.16308C2.15497 7.38849 2.16036 7.3998 2.11387 7.45889C2.0873 7.4927 1.95449 7.6575 1.81876 7.82511C0.966309 8.87798 0.580117 9.91696 0.74749 10.7072C0.820439 11.0515 0.965781 11.3149 1.22371 11.5702C1.57788 11.9209 2.00128 12.1099 2.64531 12.205C3.03795 12.2629 3.82659 12.248 4.29209 12.1737C4.45322 12.148 4.63879 12.1193 4.70444 12.11L4.82383 12.093L4.90756 12.3234C5.24113 13.2411 5.65387 13.9265 6.15766 14.3994C6.44409 14.6682 6.6436 14.796 6.94829 14.9058C7.1302 14.9713 7.21264 14.9833 7.48545 14.9842C8.02501 14.9861 8.38375 14.832 8.83876 14.4028C9.34867 13.9219 9.75889 13.2416 10.0926 12.3234L10.1764 12.093L10.2958 12.11C10.3614 12.1193 10.547 12.148 10.7081 12.1738C11.1592 12.2459 11.9905 12.2618 12.3592 12.2053C13.0153 12.1048 13.4206 11.9232 13.7765 11.5705C14.0344 11.3149 14.1798 11.0513 14.2527 10.7072C14.4201 9.91696 14.0339 8.87798 13.1814 7.82511C13.0457 7.6575 12.9129 7.4927 12.8863 7.45889C12.8398 7.3998 12.8452 7.38849 13.0274 7.16308C13.4877 6.59346 13.8985 5.86377 14.05 5.34668C14.1072 5.15136 14.1311 4.99186 14.1419 4.73144C14.1639 4.20346 14.0731 3.89074 13.7901 3.52043C13.3948 3.0029 12.5628 2.69557 11.5577 2.69587C11.2688 2.69596 10.5768 2.76261 10.37 2.81024C10.159 2.85888 10.1566 2.8575 10.0801 2.64404C9.77031 1.77899 9.3398 1.06781 8.84307 0.600584C8.41132 0.1945 8.05788 0.0323422 7.55869 0.0112777C7.34626 0.00234217 7.23077 0.0130062 7.07081 0.0563363ZM7.2427 0.932547C6.79012 1.094 6.38641 1.55666 6.00988 2.34536C5.78143 2.82387 5.70118 3.04471 5.74967 3.0612C5.76977 3.06806 5.95762 3.12829 6.16709 3.19509C6.37656 3.26185 6.7622 3.40107 7.02402 3.50443L7.5001 3.6924L7.97617 3.50408C8.23803 3.40052 8.63023 3.26007 8.84775 3.19195C9.06528 3.12384 9.25226 3.06006 9.26321 3.05018C9.29008 3.02601 9.1218 2.59775 8.95097 2.25551C8.43675 1.22549 7.80124 0.733328 7.2427 0.932547ZM2.95908 3.6051C2.48333 3.66457 2.06846 3.85002 1.89118 4.08243C1.51943 4.56981 1.80408 5.53359 2.62141 6.55485L2.79115 6.76696L2.97127 6.5988C3.2222 6.36457 3.63268 6.02326 3.97732 5.76225L4.26892 5.54144L4.28916 5.34372C4.32004 5.04225 4.44555 4.32477 4.5245 3.99814C4.56329 3.83763 4.59273 3.70394 4.58986 3.7011C4.58702 3.69826 4.44443 3.67512 4.27299 3.64966C3.8778 3.59098 3.24399 3.56947 2.95908 3.6051ZM11.0956 3.60413C10.6622 3.6455 10.3962 3.69662 10.4112 3.73573C10.48 3.91503 10.7225 5.25381 10.7227 5.45546C10.7228 5.52187 10.7715 5.57191 11.0186 5.759C11.3678 6.02349 11.7771 6.36375 12.0304 6.6002L12.212 6.76974L12.4011 6.52696C13.2116 5.48642 13.4788 4.56726 13.1111 4.08512C12.8157 3.69782 12.044 3.51366 11.0956 3.60413ZM5.39225 4.16962C5.31147 4.52613 5.24831 4.86328 5.26231 4.86328C5.26853 4.86328 5.44835 4.76109 5.66192 4.63623C5.87553 4.51137 6.12599 4.36963 6.21848 4.32129C6.311 4.27295 6.3867 4.22554 6.38676 4.21596C6.38682 4.19824 5.88156 4.0224 5.60503 3.94388L5.45315 3.90079L5.39225 4.16962ZM9.50693 3.91283C9.32169 3.96055 8.61341 4.19927 8.61344 4.21394C8.6135 4.22464 8.6892 4.27295 8.78172 4.32129C8.87421 4.36963 9.12607 4.51216 9.34135 4.63804C9.55665 4.7639 9.73662 4.86278 9.74128 4.85777C9.75197 4.84623 9.5899 4.056 9.55911 3.96955C9.54654 3.93419 9.52305 3.90867 9.50693 3.91283ZM6.96373 4.93295C6.4036 5.22278 6.09276 5.40064 5.5958 5.71567C5.04373 6.06562 5.10552 5.96519 5.06576 6.57715C5.02829 7.1538 5.0476 8.64249 5.09412 8.76486C5.148 8.90657 6.34703 9.64664 7.28761 10.1187L7.49995 10.2253L7.76907 10.0901C8.39649 9.77499 9.3284 9.22526 9.75634 8.91782C9.88117 8.82814 9.90232 8.79762 9.9228 8.67756C9.95403 8.49436 9.94645 6.45293 9.9136 6.21123L9.88779 6.02106L9.50693 5.77807C8.77381 5.31032 7.62941 4.6875 7.50306 4.6875C7.46734 4.6875 7.22465 4.79795 6.96373 4.93295ZM7.08297 6.20924C6.51941 6.38938 6.15244 6.8995 6.15244 7.50269C6.15244 8.26526 6.73601 8.84766 7.5001 8.84766C8.26419 8.84766 8.84775 8.26526 8.84775 7.50269C8.84775 6.8944 8.47823 6.38546 7.90759 6.20786C7.67562 6.13564 7.31125 6.13626 7.08297 6.20924ZM3.95518 6.90803C3.85044 6.997 3.67905 7.14767 3.57432 7.24286L3.38389 7.41589L3.48886 7.5092C3.54657 7.56053 3.71796 7.71439 3.86972 7.85112L4.14561 8.09968L4.15387 7.75591C4.15841 7.56682 4.15841 7.26228 4.15387 7.07918L4.14561 6.74625L3.95518 6.90803ZM10.8399 7.41096C10.8399 7.97927 10.8465 8.08506 10.8804 8.06543C10.94 8.03089 11.6017 7.43218 11.6017 7.41275C11.6017 7.39755 11.1614 7.00101 10.9352 6.81243L10.8399 6.73306V7.41096ZM2.53328 8.34228C1.45457 9.68868 1.29593 10.7447 2.11258 11.1428C2.46147 11.3129 2.68214 11.3493 3.33994 11.3453C4.07497 11.3408 4.55834 11.2734 4.55195 11.1762C4.54984 11.1443 4.50804 10.9204 4.45902 10.6787C4.37972 10.2877 4.3184 9.90334 4.26235 9.4464L4.24416 9.29807L3.79938 8.94249C3.55475 8.74693 3.22721 8.46762 3.07149 8.32178C2.91581 8.17597 2.78251 8.05664 2.77527 8.05664C2.76804 8.05664 2.65914 8.18516 2.53328 8.34228ZM11.9679 8.28263C11.7212 8.51798 11.2036 8.9555 10.9224 9.16643C10.7615 9.28708 10.7551 9.2971 10.7367 9.4577C10.6974 9.80083 10.6008 10.398 10.5275 10.752C10.4176 11.2823 10.3938 11.2254 10.7521 11.2881C10.9775 11.3275 11.22 11.3427 11.6603 11.3449C12.1929 11.3477 12.2873 11.3408 12.4952 11.2839C12.9446 11.1611 13.2155 10.9727 13.3382 10.6979C13.4155 10.5249 13.4208 10.172 13.3501 9.90234C13.2868 9.66085 13.0521 9.17335 12.8511 8.86561C12.6872 8.61483 12.2506 8.05582 12.2201 8.05784C12.2103 8.05849 12.0968 8.15965 11.9679 8.28263ZM5.24424 10.053C5.24424 10.1188 5.41765 10.9935 5.43396 11.0099C5.44407 11.0202 6.2098 10.7694 6.34117 10.7129L6.42736 10.6758L6.0482 10.4601C5.83967 10.3414 5.60272 10.2024 5.52162 10.151C5.25713 9.98361 5.24424 9.97904 5.24424 10.053ZM9.52425 10.1241C9.40486 10.1985 9.14172 10.353 8.93948 10.4674L8.57178 10.6753L8.6585 10.7126C8.79033 10.7694 9.55609 11.0202 9.56623 11.0099C9.58812 10.9879 9.75833 10.0956 9.7503 10.0452C9.74228 9.99486 9.7177 10.0034 9.52425 10.1241ZM7.35361 11.2551C7.06653 11.3849 6.49773 11.602 6.10272 11.7327L5.68677 11.8703L5.76086 12.0802C5.87635 12.4073 6.16709 12.9939 6.35052 13.2699C6.70993 13.8106 7.11646 14.1064 7.5001 14.1064C7.88427 14.1064 8.29024 13.8107 8.65103 13.2679C8.83293 12.9942 9.1189 12.4161 9.23869 12.08L9.31352 11.87L8.89753 11.7325C8.66875 11.6568 8.27061 11.5095 8.01279 11.405C7.75498 11.3006 7.53086 11.2107 7.51475 11.2053C7.49863 11.1999 7.42612 11.2223 7.35361 11.2551Z" fill="#EAEAEA"/>
</g>
</g>
<defs>
<clipPath id="clip0_22_1040">
<rect width="15" height="15" fill="white"/>
</clipPath>
<clipPath id="clip1_22_1040">
<rect width="15" height="15" fill="white"/>
</clipPath>
</defs>
</svg>
